<?xml version="1.0" standalone="no"?>
<!DOCTYPE svg PUBLIC "-//W3C//DTD SVG 20010904//EN"
 "http://www.w3.org/TR/2001/REC-SVG-20010904/DTD/svg10.dtd">
<svg version="1.0" xmlns="http://www.w3.org/2000/svg"
 width="761.000000pt" height="761.000000pt" viewBox="0 0 761.000000 761.000000"
 preserveAspectRatio="xMidYMid meet">
<metadata>
Created by potrace 1.11, written by Peter Selinger 2001-2013
</metadata>
<g transform="translate(0.000000,761.000000) scale(0.100000,-0.100000)"
fill="#000000" stroke="none">
<path d="M3462 7477 c-24 -73 -47 -141 -52 -152 -4 -11 -31 -85 -60 -165 -81
-229 -192 -514 -247 -640 -11 -25 -45 -103 -76 -175 -144 -337 -306 -661 -519
-1035 -58 -102 -125 -221 -150 -265 -105 -186 -282 -554 -353 -734 -34 -85
-43 -112 -91 -246 -24 -68 -108 -350 -118 -397 -36 -167 -61 -301 -72 -383 -3
-22 -7 -51 -10 -65 -19 -117 -27 -555 -11 -695 4 -38 9 -92 12 -118 5 -40 14
-93 51 -277 10 -51 66 -237 91 -305 127 -343 309 -651 547 -930 299 -349 782
-700 1182 -859 167 -66 166 -47 -3 71 -289 200 -435 330 -600 533 -234 287
-434 691 -553 1115 -35 123 -95 418 -105 510 -3 33 -8 74 -10 90 -22 160 -27
471 -10 600 26 192 99 431 221 720 64 151 227 485 312 640 21 39 53 95 70 127
63 116 227 386 278 458 74 107 161 267 223 411 29 68 61 142 70 164 24 53 152
458 165 520 3 11 14 56 26 100 11 44 22 89 25 100 42 190 87 380 89 383 6 5
64 -96 136 -233 149 -288 257 -614 305 -930 10 -60 19 -118 20 -127 7 -35 18
-256 18 -348 -2 -633 -219 -1282 -609 -1821 l-66 -92 78 7 c42 4 80 8 83 10 3
2 26 7 52 10 25 3 88 15 140 26 433 94 852 294 1203 574 60 48 109 86 111 84
4 -5 38 -239 49 -333 36 -306 41 -406 41 -750 0 -264 -8 -485 -20 -546 -2 -9
-6 -49 -10 -90 -3 -41 -10 -103 -15 -139 -5 -36 -12 -85 -15 -110 -4 -37 -19
-127 -39 -245 -4 -19 -19 -95 -21 -105 -1 -3 -5 -23 -9 -45 -5 -22 -15 -67
-23 -100 -14 -58 -18 -74 -27 -113 -59 -262 -238 -782 -365 -1056 -23 -49 -39
-91 -37 -93 10 -10 224 234 341 387 63 84 235 335 235 345 0 2 21 39 46 82 60
101 171 329 225 463 105 261 217 656 244 865 2 11 5 36 8 55 6 35 14 94 22
160 30 248 24 620 -16 895 -5 39 -12 86 -15 105 -19 136 -89 422 -143 587
-100 306 -250 614 -430 888 -36 55 -68 104 -70 110 -2 5 -12 18 -23 29 -18 20
-18 20 -19 -5 -2 -111 -63 -410 -104 -504 -7 -16 -25 -61 -41 -100 -136 -336
-413 -653 -744 -852 -150 -89 -150 -87 -9 68 146 158 348 502 429 729 19 52
35 100 37 105 1 6 14 48 28 94 21 73 50 210 69 331 20 125 26 422 13 581 -10
119 -32 257 -57 364 -11 50 -23 101 -26 115 -21 103 -148 425 -219 555 -12 22
-37 67 -55 100 -154 280 -405 584 -665 805 -88 75 -247 196 -292 222 l-29 17
-42 -132z"/>
<path d="M3698 4901 c-18 -16 -67 -57 -108 -92 -457 -389 -790 -915 -955
-1509 -20 -69 -37 -135 -39 -145 -3 -11 -9 -40 -14 -65 -6 -25 -13 -63 -17
-85 -3 -22 -10 -67 -15 -100 -5 -33 -12 -89 -15 -125 -3 -36 -8 -81 -11 -100
-6 -46 -6 -330 1 -400 38 -389 132 -706 306 -1035 143 -272 396 -595 567 -727
49 -38 54 -40 70 -25 15 16 15 19 -3 41 -110 138 -285 379 -285 391 0 2 -13
23 -29 47 -92 139 -215 397 -290 612 -55 157 -114 400 -136 566 -3 25 -8 56
-10 70 -30 201 -25 553 10 755 16 94 74 315 82 315 3 0 2 -26 -2 -57 -56 -481
198 -941 612 -1108 336 -136 736 -86 1039 130 85 61 201 179 259 264 27 39 50
70 51 68 1 -1 5 -20 8 -42 4 -23 8 -50 10 -60 2 -11 7 -48 11 -82 4 -35 9 -75
11 -90 7 -53 17 -269 16 -368 0 -170 -10 -308 -38 -500 -14 -102 -18 -121 -28
-165 -3 -14 -8 -36 -10 -50 -7 -41 -66 -271 -82 -319 -8 -24 -13 -45 -11 -47
7 -8 147 225 205 341 96 192 181 451 206 628 4 27 10 59 12 70 12 54 19 186
19 342 -1 153 -3 197 -20 329 -6 46 -47 229 -68 306 -20 70 -86 253 -95 262
-4 4 -34 -16 -67 -43 -364 -304 -763 -530 -1073 -610 -227 -58 -408 -39 -520
56 -76 64 -142 206 -168 360 -15 91 -12 361 5 465 5 36 13 83 17 105 21 140
131 497 199 650 123 277 244 507 355 675 52 79 82 130 77 130 -3 0 -20 -13
-39 -29z"/>
</g>
</svg>
